# xmcd CD database file
#
# Track frame offsets:
#	150
#	15462
#	35670
#	51300
#	70322
#	90442
#	110135
#	131132
#	149802
#	168175
#	184255
#	206297
#	228422
#	245867
#	262267
#	281955
#	296887
#	313247
#	327912
#
# Disc length: 4578 seconds
#
# Revision: 2
# Processed by: cddbd v1.5.2PL0 Copyright (c) Steve Scherf et al.
# Submitted via: CDex 1.77
#
DISCID=3b11e013
DTITLE=EMI Records Ltd. - Late Night Sax
DYEAR=1996
DGENRE=Jazz
TTITLE0=AIN'T NO SUNSHINE
TTITLE1=THINK TWICE
TTITLE2=SAVING ALL MY LOVE TO YOU
TTITLE3=I SWEAR
TTITLE4=YOUR LOVE IS KING
TTITLE5=SEXUAL HEALING
TTITLE6=CARELESS WHISPER
TTITLE7=RIGHT HERE WAITING
TTITLE8=IF YOU DON'T KNOW ME BY NOW
TTITLE9=NOTHING COMPARES
TTITLE10=LET'S GET IT ON
TTITLE11=JUST THE WAY YOU ARE
TTITLE12=IF YOU LEAVE ME NOW
TTITLE13=HEARD IT THROUGH THE GRAPEVINE
TTITLE14=(EVERYTHING I DO) I DO IT FOR YOU
TTITLE15=SONGBIRD
TTITLE16=THREE TIMES A LADY
TTITLE17=WHEN A MAN LOVES A WOMEN
TTITLE18=LATE NIGHT LOVE
EXTD=YEAR: 1996
EXTT0=
EXTT1=
EXTT2=
EXTT3=
EXTT4=
EXTT5=
EXTT6=
EXTT7=
EXTT8=
EXTT9=
EXTT10=
EXTT11=
EXTT12=
EXTT13=
EXTT14=
EXTT15=
EXTT16=
EXTT17=
EXTT18=
PLAYORDER=
